<svg xmlns="http://www.w3.org/2000/svg" viewBox="0 0 761.92 100.43"><defs><style>.cls-1,.cls-2{fill:#272727;}.cls-2{font-size:61.7px;font-family:Montserrat-SemiBoldItalic, Montserrat;font-weight:600;font-style:italic;}.cls-3{letter-spacing:-0.03em;}.cls-4{letter-spacing:-0.01em;}.cls-5{letter-spacing:-0.02em;}</style></defs><g id="Capa_2" data-name="Capa 2"><g id="Capa_1-2" data-name="Capa 1"><path class="cls-1" d="M2.61,54.25H67.35L55.5,68.54a2.61,2.61,0,0,0,4,3.33L74.13,54.25h57a2.61,2.61,0,0,0,2.46-3.49L116,1.73A2.61,2.61,0,0,0,114,0a2.28,2.28,0,0,0-.45,0,2.62,2.62,0,0,0-2,.94L91,25.79H41.1a2.61,2.61,0,1,0,0,5.22H86.62L71.68,49H2.61a2.61,2.61,0,0,0,0,5.22ZM93.41,31h13.52a2.61,2.61,0,0,0,0-5.22H97.74l14.92-18L127.44,49h-49Z"/><path class="cls-1" d="M136.38,18.57a2.6,2.6,0,0,0-2.46,3.49l17.58,49a2.61,2.61,0,0,0,4.47.78L176.58,47h49.86a2.61,2.61,0,1,0,0-5.22H180.91l14.94-18h69.07a2.61,2.61,0,0,0,0-5.22H200.19L212,4.28a2.61,2.61,0,0,0-4-3.34L193.4,18.57Zm37.74,23.24H160.6a2.61,2.61,0,1,0,0,5.22h9.19L154.87,65,140.09,23.79h49Z"/><text class="cls-2" transform="translate(272 62.11)">ARIAN <tspan class="cls-3" x="224.23" y="0">F</tspan><tspan x="261.68" y="0">A</tspan><tspan class="cls-4" x="307.9" y="0">L</tspan><tspan class="cls-5" x="344.06" y="0">C</tspan><tspan x="387.99" y="0">ON</tspan></text><path class="cls-1" d="M500.26,100.28V79.62h8.17A12.12,12.12,0,0,1,514.19,81,9.77,9.77,0,0,1,518,84.61a11.09,11.09,0,0,1,0,10.68A9.63,9.63,0,0,1,514.19,99a12,12,0,0,1-5.76,1.33Zm1.5-1.36h6.55a10.61,10.61,0,0,0,5.08-1.15,8.28,8.28,0,0,0,3.33-3.17,9.75,9.75,0,0,0,0-9.3,8.34,8.34,0,0,0-3.33-3.17A10.61,10.61,0,0,0,508.31,81h-6.55Z"/><path class="cls-1" d="M524.9,81.13a1.16,1.16,0,0,1-.86-.36,1.14,1.14,0,0,1-.35-.82,1.2,1.2,0,0,1,1.21-1.21,1.18,1.18,0,0,1,.87.34,1.15,1.15,0,0,1,.34.84,1.2,1.2,0,0,1-.34.85A1.15,1.15,0,0,1,524.9,81.13Zm-.74,19.15V84.88h1.47v15.4Z"/><path class="cls-1" d="M535.76,100.4a11.3,11.3,0,0,1-3.59-.56,7.12,7.12,0,0,1-2.58-1.42l.68-1.18a7.48,7.48,0,0,0,2.36,1.31,9,9,0,0,0,3.19.55,5.91,5.91,0,0,0,3.48-.8,2.49,2.49,0,0,0,1.06-2.09,2,2,0,0,0-.55-1.49,3.41,3.41,0,0,0-1.46-.84,14.64,14.64,0,0,0-2-.49c-.73-.13-1.46-.27-2.19-.43a8.88,8.88,0,0,1-2-.68,3.64,3.64,0,0,1-1.46-1.22,3.53,3.53,0,0,1-.55-2.08,3.7,3.7,0,0,1,.65-2.13,4.5,4.5,0,0,1,2-1.52,8,8,0,0,1,3.24-.57,10.82,10.82,0,0,1,2.91.41,7.52,7.52,0,0,1,2.38,1.09l-.68,1.18a6.37,6.37,0,0,0-2.19-1.06,9.21,9.21,0,0,0-2.45-.32,5.33,5.33,0,0,0-3.29.82,2.52,2.52,0,0,0-1,2.07,2.18,2.18,0,0,0,.54,1.55,3.53,3.53,0,0,0,1.46.88,12.3,12.3,0,0,0,2,.5c.73.13,1.45.28,2.18.43a9.3,9.3,0,0,1,2,.67,3.64,3.64,0,0,1,1.46,1.18,3.38,3.38,0,0,1,.55,2,3.66,3.66,0,0,1-.7,2.21,4.49,4.49,0,0,1-2,1.48A9.23,9.23,0,0,1,535.76,100.4Z"/><path class="cls-1" d="M552.22,100.4a8.24,8.24,0,0,1-4.11-1,7.26,7.26,0,0,1-2.81-2.77,8,8,0,0,1-1-4,8.31,8.31,0,0,1,1-4.06,7.15,7.15,0,0,1,2.64-2.76,7.27,7.27,0,0,1,3.78-1,7.35,7.35,0,0,1,3.77,1,7,7,0,0,1,2.62,2.73,8.32,8.32,0,0,1,1,4.06,1.28,1.28,0,0,1,0,.19,1.5,1.5,0,0,0,0,.22h-13.6V91.78h12.8l-.59.56a6.4,6.4,0,0,0-.75-3.23,5.84,5.84,0,0,0-2.11-2.24,6.18,6.18,0,0,0-6.12,0,5.69,5.69,0,0,0-2.11,2.24,6.8,6.8,0,0,0-.77,3.26v.27a6.61,6.61,0,0,0,.84,3.35,5.89,5.89,0,0,0,2.32,2.27,6.85,6.85,0,0,0,3.36.81,7.18,7.18,0,0,0,2.76-.53,5.52,5.52,0,0,0,2.17-1.62l.86,1a6.24,6.24,0,0,1-2.53,1.87A8.32,8.32,0,0,1,552.22,100.4Z"/><path class="cls-1" d="M571.11,84.76a7.09,7.09,0,0,1,3.29.72,5.12,5.12,0,0,1,2.19,2.18,7.63,7.63,0,0,1,.78,3.62v9h-1.48V91.4a5.51,5.51,0,0,0-1.31-4,4.9,4.9,0,0,0-3.68-1.35,6.31,6.31,0,0,0-3.12.73,5,5,0,0,0-2,2.07,6.83,6.83,0,0,0-.69,3.19v8.2h-1.47V84.88H565v4.27l-.2-.47a5.74,5.74,0,0,1,2.33-2.87A7.17,7.17,0,0,1,571.11,84.76Zm1.27-2.63a2.23,2.23,0,0,1-1.17-.31,5.44,5.44,0,0,1-.93-.71,10.38,10.38,0,0,0-.82-.71,1.49,1.49,0,0,0-.89-.3,1.34,1.34,0,0,0-1.09.51A2.51,2.51,0,0,0,567,82h-1a3.5,3.5,0,0,1,.73-2.14,2.12,2.12,0,0,1,1.72-.81,2.3,2.3,0,0,1,1.17.31,5.52,5.52,0,0,1,.94.71c.29.27.56.5.83.71a1.45,1.45,0,0,0,.87.31,1.37,1.37,0,0,0,1.11-.52,2.12,2.12,0,0,0,.45-1.34h1a3.26,3.26,0,0,1-.71,2.08A2.16,2.16,0,0,1,572.38,82.13Z"/><path class="cls-1" d="M587.61,100.4a7.29,7.29,0,0,1-3-.55,4.21,4.21,0,0,1-1.92-1.55,4.08,4.08,0,0,1-.66-2.3,4.28,4.28,0,0,1,.54-2.14,4,4,0,0,1,1.82-1.56,7.85,7.85,0,0,1,3.39-.61h5.67v1.15h-5.64a4.94,4.94,0,0,0-3.35.89,3,3,0,0,0,.16,4.57,5,5,0,0,0,3.16.89,5.83,5.83,0,0,0,3.29-.89,5.16,5.16,0,0,0,2-2.56l.42,1a5.41,5.41,0,0,1-2.11,2.67A6.74,6.74,0,0,1,587.61,100.4Zm5.54-.12V96.77l-.06-.53V90.45a4.32,4.32,0,0,0-1.16-3.27,4.72,4.72,0,0,0-3.41-1.12,8.08,8.08,0,0,0-3,.54,8.17,8.17,0,0,0-2.34,1.4l-.74-1.06a8.26,8.26,0,0,1,2.78-1.61,10.14,10.14,0,0,1,3.39-.57A6.2,6.2,0,0,1,593,86.2a5.66,5.66,0,0,1,1.53,4.31v9.77Z"/><path class="cls-1" d="M606.58,100.4a7.64,7.64,0,0,1-3.88-1A7.24,7.24,0,0,1,600,96.65a8.82,8.82,0,0,1,0-8.16,7.26,7.26,0,0,1,2.73-2.74,7.64,7.64,0,0,1,3.88-1,7.25,7.25,0,0,1,3.68.94,6.85,6.85,0,0,1,2.59,2.69,8.56,8.56,0,0,1,1,4.19,8.72,8.72,0,0,1-.94,4.16,6.68,6.68,0,0,1-2.58,2.71A7.32,7.32,0,0,1,606.58,100.4Zm.09-1.33a6.2,6.2,0,0,0,3.17-.81A5.83,5.83,0,0,0,612.06,96a7.54,7.54,0,0,0,0-6.8,5.91,5.91,0,0,0-2.22-2.27,6.61,6.61,0,0,0-6.34,0,5.91,5.91,0,0,0-2.22,2.27,7.54,7.54,0,0,0,0,6.8,5.83,5.83,0,0,0,2.22,2.29A6.2,6.2,0,0,0,606.67,99.07Zm6.23,1.21v-5l.26-2.68-.29-2.69V78.38h1.47v21.9Z"/><path class="cls-1" d="M626.59,100.4a7.68,7.68,0,0,1-3.94-1,7.39,7.39,0,0,1-2.75-2.77,8.63,8.63,0,0,1,0-8.1,7.51,7.51,0,0,1,2.75-2.76,7.67,7.67,0,0,1,3.94-1,7.76,7.76,0,0,1,3.95,1,7.36,7.36,0,0,1,2.75,2.76,8.7,8.7,0,0,1,0,8.1,7.25,7.25,0,0,1-2.75,2.77A7.76,7.76,0,0,1,626.59,100.4Zm0-1.33a6.33,6.33,0,0,0,3.19-.81A5.67,5.67,0,0,0,632,96a7.62,7.62,0,0,0,0-6.8,5.75,5.75,0,0,0-2.21-2.27,6.33,6.33,0,0,0-3.19-.81,6.2,6.2,0,0,0-3.17.81,5.84,5.84,0,0,0-2.22,2.27,7.54,7.54,0,0,0,0,6.8,5.76,5.76,0,0,0,2.22,2.29A6.2,6.2,0,0,0,626.59,99.07Z"/><path class="cls-1" d="M638.86,100.28V84.88h1.42V89.1l-.15-.48a5.46,5.46,0,0,1,2.19-2.86,6.84,6.84,0,0,1,3.83-1V86.2H646l-.18,0a5.12,5.12,0,0,0-4,1.61,6.43,6.43,0,0,0-1.45,4.47v8Z"/><path class="cls-1" d="M667.37,100.43a11.67,11.67,0,0,1-4.31-.78,10.46,10.46,0,0,1-3.43-2.2,9.84,9.84,0,0,1-2.26-3.32,11.29,11.29,0,0,1,0-8.35,9.77,9.77,0,0,1,2.27-3.32,10.39,10.39,0,0,1,3.44-2.2,11.61,11.61,0,0,1,4.32-.78,12,12,0,0,1,4.16.7,8.67,8.67,0,0,1,3.28,2.13l-1,1a8.11,8.11,0,0,0-3-1.89,10.7,10.7,0,0,0-3.5-.56,10,10,0,0,0-3.72.68,8.88,8.88,0,0,0-3,1.92,8.66,8.66,0,0,0-2,2.89,9.74,9.74,0,0,0,0,7.2,8.56,8.56,0,0,0,2,2.89,8.88,8.88,0,0,0,3,1.92,10,10,0,0,0,3.72.68,10.74,10.74,0,0,0,3.47-.56,8,8,0,0,0,3-1.86l.86,1.15a8.85,8.85,0,0,1-3.32,2A12.22,12.22,0,0,1,667.37,100.43Zm5.93-2.81V90h1.45v7.73Z"/><path class="cls-1" d="M680.89,100.28V84.88h1.41V89.1l-.14-.48a5.44,5.44,0,0,1,2.18-2.86,6.85,6.85,0,0,1,3.84-1V86.2H688l-.18,0a5.12,5.12,0,0,0-4,1.61,6.43,6.43,0,0,0-1.45,4.47v8Z"/><path class="cls-1" d="M695.26,100.4a7.32,7.32,0,0,1-3-.55,4.23,4.23,0,0,1-1.91-1.55,4,4,0,0,1-.67-2.3,4.19,4.19,0,0,1,.55-2.14,3.92,3.92,0,0,1,1.81-1.56,7.9,7.9,0,0,1,3.4-.61h5.66v1.15H695.5a4.91,4.91,0,0,0-3.35.89,2.89,2.89,0,0,0-1,2.21,2.84,2.84,0,0,0,1.12,2.36,5,5,0,0,0,3.16.89,5.88,5.88,0,0,0,3.29-.89,5.27,5.27,0,0,0,2-2.56l.41,1a5.35,5.35,0,0,1-2.11,2.67A6.72,6.72,0,0,1,695.26,100.4Zm5.55-.12V96.77l-.06-.53V90.45a4.33,4.33,0,0,0-1.17-3.27,4.72,4.72,0,0,0-3.41-1.12,8,8,0,0,0-3,.54,8.09,8.09,0,0,0-2.35,1.4l-.74-1.06a8.36,8.36,0,0,1,2.78-1.61,10.14,10.14,0,0,1,3.39-.57,6.19,6.19,0,0,1,4.4,1.44,5.66,5.66,0,0,1,1.53,4.31v9.77Zm-6.26-17.91,4.1-3.48h2.13l-4.64,3.48Z"/><path class="cls-1" d="M705.76,86.14V84.88H715v1.26Zm2.84,14.14V82.52a4.3,4.3,0,0,1,1.11-3.09,4.13,4.13,0,0,1,3.17-1.16,5.65,5.65,0,0,1,1.68.25,3.27,3.27,0,0,1,1.36.75l-.59,1.12a2.78,2.78,0,0,0-1.07-.65,4.06,4.06,0,0,0-1.32-.21,2.83,2.83,0,0,0-2.16.79,3.25,3.25,0,0,0-.74,2.31v2.6l0,.71v14.34Zm10.12-19.15a1.18,1.18,0,0,1-.86-.36,1.14,1.14,0,0,1-.35-.82,1.19,1.19,0,0,1,.35-.86,1.21,1.21,0,0,1,.86-.35,1.18,1.18,0,0,1,.87.34,1.11,1.11,0,0,1,.34.84,1.2,1.2,0,0,1-1.21,1.21ZM718,100.28V84.88h1.48v15.4Z"/><path class="cls-1" d="M731.79,100.4a7.92,7.92,0,0,1-4-1A7.3,7.3,0,0,1,725,96.62a8.57,8.57,0,0,1,0-8.11,7.27,7.27,0,0,1,2.77-2.76,8,8,0,0,1,4-1,7.78,7.78,0,0,1,3.38.71,6,6,0,0,1,2.47,2.12l-1.1.8a5,5,0,0,0-2.06-1.74,6.36,6.36,0,0,0-2.69-.56,6.43,6.43,0,0,0-3.23.81,5.82,5.82,0,0,0-2.24,2.27,7.58,7.58,0,0,0,0,6.82,5.82,5.82,0,0,0,2.24,2.27,6.43,6.43,0,0,0,3.23.81,6.51,6.51,0,0,0,2.69-.56,5,5,0,0,0,2.06-1.74l1.1.8a6,6,0,0,1-2.47,2.12A7.93,7.93,0,0,1,731.79,100.4Z"/><path class="cls-1" d="M747.82,100.4a7.68,7.68,0,0,1-3.94-1,7.39,7.39,0,0,1-2.75-2.77,8.63,8.63,0,0,1,0-8.1,7.51,7.51,0,0,1,2.75-2.76,7.67,7.67,0,0,1,3.94-1,7.76,7.76,0,0,1,3.95,1,7.36,7.36,0,0,1,2.75,2.76,8.7,8.7,0,0,1,0,8.1,7.25,7.25,0,0,1-2.75,2.77A7.76,7.76,0,0,1,747.82,100.4Zm0-1.33a6.27,6.27,0,0,0,3.18-.81A5.63,5.63,0,0,0,753.22,96a7.71,7.71,0,0,0,0-6.8A5.7,5.7,0,0,0,751,86.9a6.65,6.65,0,0,0-6.36,0,5.88,5.88,0,0,0-2.21,2.27,7.54,7.54,0,0,0,0,6.8,5.8,5.8,0,0,0,2.21,2.29A6.27,6.27,0,0,0,747.82,99.07Z"/></g></g></svg>